G04 DipTrace 3.2.0.1*
G04 Bottom.gbr*
%MOIN*%
G04 #@! TF.FileFunction,Copper,L2,Bot*
G04 #@! TF.Part,Single*
%ADD14C,0.03937*%
%ADD22C,0.051181*%
%ADD23C,0.035433*%
%ADD24C,0.032008*%
G04 #@! TA.AperFunction,ComponentPad*
%ADD16C,0.11811*%
%ADD17C,0.07874*%
%ADD18R,0.07874X0.07874*%
%ADD19R,0.062992X0.062992*%
%ADD20C,0.07874*%
%ADD21R,0.059055X0.059055*%
%FSLAX26Y26*%
G04*
G70*
G90*
G75*
G01*
G04 Bottom*
%LPD*%
X-1050000Y1800000D2*
D14*
Y1900013D1*
Y2000000D1*
X-662500Y1900000D2*
X-1050000Y1900013D1*
X-187500Y1787500D2*
Y1600000D1*
X-550000D1*
Y1900000D1*
X-662500D1*
X-400000Y2800000D2*
X-1175000D1*
Y2000000D1*
X-1050000D1*
X1412500Y-475000D2*
X-1175000D1*
Y1800000D1*
X-1050000D1*
X1162500Y2012500D2*
Y2312500D1*
X1450000D1*
Y2462500D1*
X1687500D1*
X1812500D1*
Y2800000D1*
X1100382D1*
X250000D1*
X-400000D1*
X-1175000Y-475000D2*
Y1100000D1*
X-1050000D1*
X1412500Y-475000D2*
X1787500D1*
Y487500D1*
X1612500D1*
Y-87500D1*
X1412500D1*
X1687500Y2462500D2*
D3*
X262500Y2800000D2*
X250000D1*
X1300000D2*
X1100382D1*
X1175000Y1250000D2*
X-62500D1*
Y825000D1*
X1387500D1*
Y487500D1*
X1612500D1*
X1362500Y1250000D2*
X1175000D1*
X675000Y-275000D2*
X1412500D1*
X125000D2*
Y-375000D1*
X675000D1*
Y-275000D1*
X387500Y112500D2*
X450000D1*
Y662500D1*
X175000D1*
Y112500D1*
X112500D1*
X-175000D2*
X-112500D1*
Y662500D1*
X-412500D1*
Y112500D1*
X-475000D1*
X-412500Y662500D2*
X-700000D1*
Y112500D1*
X-762500D1*
X1412500D2*
X662500D1*
X450000Y662500D2*
X725000D1*
Y112500D1*
X662500D1*
X-112500Y662500D2*
X175000D1*
X600000Y537500D2*
X562500D1*
Y112500D1*
Y-275000D1*
X575000D1*
X1512500Y337500D2*
Y12500D1*
Y-375000D2*
X1700000D1*
Y337500D1*
X1512500Y637500D2*
Y825000D1*
X1750000D1*
Y2125000D1*
X1462500D1*
Y2012500D1*
X1362500D2*
Y2187500D1*
X1825000D1*
Y637500D1*
X1700000D1*
X325000Y537500D2*
X287500D1*
Y112500D1*
X62500Y537500D2*
X12500D1*
Y112500D1*
Y-275000D1*
X25000D1*
X1262500Y2012500D2*
Y2250000D1*
X1537500D1*
Y2375000D1*
X-1050000Y2200000D2*
Y2187500D1*
X-662500D1*
Y2000000D1*
X443749Y2681251D2*
X699655D1*
X950000D1*
Y2675000D1*
X825000D1*
X1080906D1*
X1337500D1*
X1537500D1*
X-662500Y2187500D2*
X-1012500D1*
Y2637500D1*
X112500D1*
X156251Y2681251D1*
X443749D1*
X112500Y2087500D2*
Y2187500D1*
Y2637500D1*
X275000Y2187500D2*
X112500D1*
X275000D2*
X450000D1*
X512500D1*
X562500D1*
Y1787500D2*
Y1812500D1*
X1162500D1*
Y1712500D1*
X1687500Y2562500D2*
X1387500D1*
Y2387500D1*
X1062500D1*
Y2012500D1*
X-662500Y1800000D2*
Y1600000D1*
X-1050000D1*
Y1300000D1*
X112500Y1887500D2*
X275000D1*
X762500Y1712500D2*
Y1587500D1*
X0D1*
Y1887500D1*
X112500D1*
X962500Y2012500D2*
Y1912500D1*
X450000D1*
Y1787500D1*
X112500D1*
X450000Y1887500D2*
Y1912500D1*
X-812500Y990256D2*
Y1500000D1*
X862500D1*
Y1712500D1*
X-525000Y990256D2*
Y1412500D1*
X962500D1*
Y1712500D1*
X-225000Y990256D2*
Y1337500D1*
X1062500D1*
Y1712500D1*
X1362500D2*
Y1565000D1*
X1365000Y1562500D1*
Y1352500D1*
X1362500Y1350000D1*
X1175000Y1562500D2*
X1262500D1*
Y1712500D1*
X1175000Y1562500D2*
Y1350000D1*
X1462500Y1712500D2*
Y1150000D1*
X62500D1*
Y990256D1*
X325000D2*
Y1075000D1*
X1562500D1*
Y1712500D1*
X600000Y990256D2*
Y987500D1*
X1675000D1*
Y2012500D1*
X1562500D1*
X-275000Y112500D2*
Y537500D1*
X-225000D1*
X-575000Y112500D2*
Y537500D1*
X-525000D1*
X-862500Y112500D2*
Y537500D1*
X-812500D1*
X825000Y2497835D2*
X1080906D1*
X862500Y2012500D2*
Y2497835D1*
X1080906D1*
X1297835D1*
X1300000Y2500000D1*
X699655Y2504085D2*
Y2012500D1*
X762500D1*
X443749Y2504085D2*
X699655D1*
X443749D2*
X266585D1*
X262500Y2500000D1*
X-187500Y2087500D2*
X-400000D1*
Y1975000D1*
X-187500Y1987500D2*
X-300000D1*
Y1785000D1*
X-400000D1*
X-187500Y1887500D2*
X-87500D1*
Y2225000D1*
X-400000D1*
D16*
Y2800000D3*
Y2225000D3*
D17*
X-1050000Y1800000D3*
D18*
Y1600000D3*
D17*
X1175000Y1250000D3*
Y1350000D3*
X1362500Y1250000D3*
Y1350000D3*
X-1050000Y2000000D3*
D18*
Y2200000D3*
D17*
X-862500Y112500D3*
X-762500D3*
X-575000D3*
X-475000D3*
X-275000D3*
X-175000D3*
X12500D3*
X112500D3*
X287500D3*
X387500D3*
X562500D3*
X662500D3*
X25000Y-275000D3*
X125000D3*
X575000D3*
X675000D3*
D19*
X1562500Y2012500D3*
D17*
X1462500D3*
X1362500D3*
X1262500D3*
X1162500D3*
X1062500D3*
X962500D3*
X862500D3*
X762500D3*
Y1712500D3*
X862500D3*
X962500D3*
X1062500D3*
X1162500D3*
X1262500D3*
X1362500D3*
X1462500D3*
X1562500D3*
D18*
X1687500Y2562500D3*
D20*
Y2462500D3*
D17*
X562500Y1787500D3*
Y2187500D3*
D16*
X-1050000Y1100000D3*
Y1300000D3*
D17*
X1412500Y-275000D3*
X1512500Y-375000D3*
D18*
X1412500Y-475000D3*
D17*
Y112500D3*
X1512500Y12500D3*
D18*
X1412500Y-87500D3*
D20*
X-812500Y537500D3*
Y990256D3*
X-525000Y537500D3*
Y990256D3*
X-225000Y537500D3*
Y990256D3*
D17*
X262500Y2500000D3*
D18*
Y2800000D3*
D17*
X1300000Y2500000D3*
D18*
Y2800000D3*
D20*
X62500Y537500D3*
Y990256D3*
X325000Y537500D3*
Y990256D3*
X600000Y537500D3*
Y990256D3*
D17*
X1537500Y2675000D3*
D18*
Y2375000D3*
D17*
X1512500Y637500D3*
D18*
Y337500D3*
D17*
X1700000Y637500D3*
D18*
Y337500D3*
D17*
X275000Y1887500D3*
D18*
Y2187500D3*
D17*
X450000Y1887500D3*
D18*
Y2187500D3*
D20*
X443749Y2681251D3*
Y2504085D3*
X699655D3*
Y2681251D3*
X825000Y2675000D3*
Y2497835D3*
X1080906D3*
Y2675000D3*
D21*
X-187500Y2087500D3*
D20*
Y1987500D3*
Y1887500D3*
Y1787500D3*
X112500D3*
Y1887500D3*
Y1987500D3*
Y2087500D3*
D18*
X-662500Y1800000D3*
D20*
Y1900000D3*
Y2000000D3*
X1175000Y1562500D3*
X1365000D3*
X-400000Y1975000D3*
Y1785000D3*
G04 Bottom Clear*
%LPC*%
D22*
Y2800000D3*
Y2225000D3*
D14*
X-1050000Y1800000D3*
Y1600000D3*
X1175000Y1250000D3*
Y1350000D3*
X1362500Y1250000D3*
Y1350000D3*
X-1050000Y2000000D3*
Y2200000D3*
X-862500Y112500D3*
X-762500D3*
X-575000D3*
X-475000D3*
X-275000D3*
X-175000D3*
X12500D3*
X112500D3*
X287500D3*
X387500D3*
X562500D3*
X662500D3*
X25000Y-275000D3*
X125000D3*
X575000D3*
X675000D3*
D23*
X1562500Y2012500D3*
D14*
X1462500D3*
X1362500D3*
X1262500D3*
X1162500D3*
X1062500D3*
X962500D3*
X862500D3*
X762500D3*
Y1712500D3*
X862500D3*
X962500D3*
X1062500D3*
X1162500D3*
X1262500D3*
X1362500D3*
X1462500D3*
X1562500D3*
X1687500Y2562500D3*
Y2462500D3*
D23*
X562500Y1787500D3*
D14*
Y2187500D3*
X-1050000Y1100000D3*
Y1300000D3*
X1412500Y-275000D3*
X1512500Y-375000D3*
X1412500Y-475000D3*
Y112500D3*
X1512500Y12500D3*
X1412500Y-87500D3*
X-812500Y537500D3*
Y990256D3*
X-525000Y537500D3*
Y990256D3*
X-225000Y537500D3*
Y990256D3*
X262500Y2500000D3*
Y2800000D3*
X1300000Y2500000D3*
Y2800000D3*
X62500Y537500D3*
Y990256D3*
X325000Y537500D3*
Y990256D3*
X600000Y537500D3*
Y990256D3*
X1537500Y2675000D3*
Y2375000D3*
X1512500Y637500D3*
Y337500D3*
X1700000Y637500D3*
Y337500D3*
X275000Y1887500D3*
Y2187500D3*
X450000Y1887500D3*
Y2187500D3*
X443749Y2681251D3*
Y2504085D3*
X699655D3*
Y2681251D3*
X825000Y2675000D3*
Y2497835D3*
X1080906D3*
Y2675000D3*
D23*
X-187500Y2087500D3*
Y1987500D3*
Y1887500D3*
Y1787500D3*
X112500D3*
Y1887500D3*
Y1987500D3*
Y2087500D3*
D14*
X-662500Y1800000D3*
Y1900000D3*
Y2000000D3*
D24*
X1175000Y1562500D3*
X1365000D3*
X-400000Y1975000D3*
Y1785000D3*
M02*
