M48
INCH
T01C0.032
T02C0.0354
T03C0.0394
T04C0.0512
T05C0.0787
%
T01
X+011750Y+015625
X+013650Y+015625
X-004000Y+017850
X-004000Y+019750
T02
X+005625Y+017875
X+001125Y+017875
X+001125Y+018875
X+001125Y+019875
X+001125Y+020875
X-001875Y+020875
X-001875Y+019875
X-001875Y+018875
X-001875Y+017875
X+015625Y+020125
T03
X+011750Y+012500
X+011750Y+013500
X+013625Y+013500
X+013625Y+012500
X+013625Y+017125
X+014625Y+017125
X+015625Y+017125
X+012625Y+017125
X+011625Y+017125
X+010625Y+017125
X+009625Y+017125
X+008625Y+017125
X+007625Y+017125
X+007625Y+020125
X+008625Y+020125
X+009625Y+020125
X+010625Y+020125
X+011625Y+020125
X+012625Y+020125
X+013625Y+020125
X+014625Y+020125
X+015375Y+023750
X+016875Y+024625
X+016875Y+025625
X+015375Y+026750
X+013000Y+028000
X+010809Y+026750
X+010809Y+024978
X+013000Y+025000
X+008250Y+024978
X+006997Y+025041
X+006997Y+026813
X+008250Y+026750
X+004437Y+026813
X+004437Y+025041
X+002625Y+025000
X+002625Y+028000
X+002750Y+021875
X+004500Y+021875
X+005625Y+021875
X+004500Y+018875
X+002750Y+018875
X+003250Y+009903
X+000625Y+009903
X-002250Y+009903
X-005250Y+009903
X-008125Y+009903
X-010500Y+011000
X-010500Y+013000
X-010500Y+016000
X-010500Y+018000
X-010500Y+020000
X-010500Y+022000
X-006625Y+020000
X-006625Y+019000
X-006625Y+018000
X-005250Y+005375
X-008125Y+005375
X-008625Y+001125
X-007625Y+001125
X-005750Y+001125
X-004750Y+001125
X-002750Y+001125
X-001750Y+001125
X+000125Y+001125
X+001125Y+001125
X+002875Y+001125
X+003875Y+001125
X+005625Y+001125
X+006625Y+001125
X+006750Y-002750
X+005750Y-002750
X+001250Y-002750
X+000250Y-002750
X+000625Y+005375
X+003250Y+005375
X+006000Y+005375
X+006000Y+009903
X-002250Y+005375
X+014125Y+001125
X+015125Y+000125
X+014125Y-000875
X+014125Y-002750
X+015125Y-003750
X+014125Y-004750
X+015125Y+003375
X+017000Y+003375
X+017000Y+006375
X+015125Y+006375
T04
X-004000Y+028000
X-004000Y+022250
T05
X+009625Y+023250
X-008750Y+023250
X-008750Y-001875
X+009625Y-001750
T00
M30
