G04 DipTrace 3.2.0.1*
G04 TopMask.gbr*
%MOIN*%
G04 #@! TF.FileFunction,Soldermask,Top*
G04 #@! TF.Part,Single*
%ADD17C,0.07874*%
%ADD26R,0.066929X0.066929*%
%ADD28C,0.086614*%
%ADD30R,0.070866X0.070866*%
%ADD32R,0.086614X0.086614*%
%ADD33C,0.086614*%
%ADD35C,0.125984*%
%FSLAX26Y26*%
G04*
G70*
G90*
G75*
G01*
G04 TopMask*
%LPD*%
D35*
X-400000Y2800000D3*
Y2225000D3*
D33*
X-1050000Y1800000D3*
D32*
Y1600000D3*
D33*
X1175000Y1250000D3*
Y1350000D3*
X1362500Y1250000D3*
Y1350000D3*
X-1050000Y2000000D3*
D32*
Y2200000D3*
D33*
X-862500Y112500D3*
X-762500D3*
X-575000D3*
X-475000D3*
X-275000D3*
X-175000D3*
X12500D3*
X112500D3*
X287500D3*
X387500D3*
X562500D3*
X662500D3*
X25000Y-275000D3*
X125000D3*
X575000D3*
X675000D3*
D17*
X962500Y2325000D3*
X-875000D3*
Y-187500D3*
D30*
X1562500Y2012500D3*
D33*
X1462500D3*
X1362500D3*
X1262500D3*
X1162500D3*
X1062500D3*
X962500D3*
X862500D3*
X762500D3*
Y1712500D3*
X862500D3*
X962500D3*
X1062500D3*
X1162500D3*
X1262500D3*
X1362500D3*
X1462500D3*
X1562500D3*
D32*
X1687500Y2562500D3*
D28*
Y2462500D3*
D33*
X562500Y1787500D3*
Y2187500D3*
D35*
X-1050000Y1100000D3*
Y1300000D3*
D33*
X1412500Y-275000D3*
X1512500Y-375000D3*
D32*
X1412500Y-475000D3*
D33*
Y112500D3*
X1512500Y12500D3*
D32*
X1412500Y-87500D3*
D28*
X-812500Y537500D3*
Y990256D3*
X-525000Y537500D3*
Y990256D3*
X-225000Y537500D3*
Y990256D3*
D33*
X262500Y2500000D3*
D32*
Y2800000D3*
D33*
X1300000Y2500000D3*
D32*
Y2800000D3*
D28*
X62500Y537500D3*
Y990256D3*
X325000Y537500D3*
Y990256D3*
X600000Y537500D3*
Y990256D3*
D33*
X1537500Y2675000D3*
D32*
Y2375000D3*
D33*
X1512500Y637500D3*
D32*
Y337500D3*
D33*
X1700000Y637500D3*
D32*
Y337500D3*
D33*
X275000Y1887500D3*
D32*
Y2187500D3*
D33*
X450000Y1887500D3*
D32*
Y2187500D3*
D28*
X443749Y2681251D3*
Y2504085D3*
X699655D3*
Y2681251D3*
X825000Y2675000D3*
Y2497835D3*
X1080906D3*
Y2675000D3*
D26*
X-187500Y2087500D3*
D28*
Y1987500D3*
Y1887500D3*
Y1787500D3*
X112500D3*
Y1887500D3*
Y1987500D3*
Y2087500D3*
D32*
X-662500Y1800000D3*
D28*
Y1900000D3*
Y2000000D3*
X1175000Y1562500D3*
X1365000D3*
X-400000Y1975000D3*
Y1785000D3*
D17*
X962500Y-175000D3*
M02*
